<svg width="91" height="68" viewBox="0 0 91 68" fill="none" xmlns="http://www.w3.org/2000/svg">
<path d="M48.956 -1.8378e-06L48.956 13.5119L46.1589 13.5119L46.1589 14.9978L43.2312 14.9978L43.2312 16.5467L40.2352 16.5467L40.2352 18.1585L91 18.1585L91 30.2285L68.6913 30.2285L68.6913 42.2985L52.2131 42.2985L52.2131 43.9544L65.6269 43.9544L65.6269 54.4252L47.7004 54.4252L47.7004 55.9426L61.1204 55.9426L61.1204 64.9715L58.0001 64.9715L58.0001 68L22.4827 68L22.4827 66.4952L17.8519 66.4952L17.8519 64.9463L15.0113 64.9463L15.0113 63.4604L11.9841 63.4604L11.9841 61.943L-2.70761e-06 61.943L-8.57585e-07 19.6193L9.00055 19.6193L9.00055 18.1585L11.9904 18.1585L11.9904 16.6348L14.9802 16.6348L14.9802 15.1237L17.9141 15.1237L17.9141 13.5874L20.935 13.5874L20.935 12.0574L23.8813 12.0574L23.8813 10.5337L26.8525 10.5337L26.8525 9.02889L29.8485 9.02889L29.8485 7.56815L33.0807 7.56815L33.0807 6.05074L36.0643 6.05074L36.0643 4.50815L39.0355 4.50815L39.0355 3.00333L42.0129 3.00333L42.0129 1.49222L45.0338 1.49222L45.0338 -2.00925e-06L49.2295 -1.82585e-06" fill="black"/>
</svg>
