<svg width="80" height="60" viewBox="0 0 80 60" fill="none" xmlns="http://www.w3.org/2000/svg">
<path d="M43.0382 -1.61565e-06L43.0382 11.9222L40.5792 11.9222L40.5792 13.2333L38.0055 13.2333L38.0055 14.6L35.3716 14.6L35.3716 16.0222L80 16.0222L80 26.6722L60.388 26.6722L60.388 37.3222L45.9016 37.3222L45.9016 38.7833L57.694 38.7833L57.694 48.0222L41.9344 48.0222L41.9344 49.3611L53.7322 49.3611L53.7322 57.3278L50.9891 57.3278L50.9891 60L19.765 60L19.765 58.6722L15.694 58.6722L15.694 57.3056L13.1967 57.3056L13.1967 55.9944L10.5355 55.9944L10.5355 54.6556L-2.38907e-06 54.6556L-7.56693e-07 17.3111L7.91257 17.3111L7.91257 16.0222L10.541 16.0222L10.541 14.6778L13.1694 14.6778L13.1694 13.3444L15.7486 13.3444L15.7486 11.9889L18.4044 11.9889L18.4044 10.6389L20.9945 10.6389L20.9945 9.29444L23.6066 9.29444L23.6066 7.96666L26.2404 7.96666L26.2404 6.67778L29.082 6.67778L29.082 5.33889L31.7049 5.33889L31.7049 3.97778L34.3169 3.97778L34.3169 2.65L36.9344 2.65L36.9344 1.31666L39.5902 1.31666L39.5902 -1.76637e-06L43.2787 -1.60514e-06" fill="url(#paint0_linear_450_3558)"/>
<defs>
<linearGradient id="paint0_linear_450_3558" x1="80" y1="30" x2="-1.31134e-06" y2="30" gradientUnits="userSpaceOnUse">
<stop stop-color="#7873FF"/>
<stop offset="1" stop-color="#5300EC"/>
</linearGradient>
</defs>
</svg>
