<svg width="22" height="17" viewBox="0 0 22 17" fill="none" xmlns="http://www.w3.org/2000/svg">
<path id="Vector" d="M11.8355 -4.44304e-07L11.8355 3.37796L11.1593 3.37796L11.1593 3.74944L10.4515 3.74944L10.4515 4.13667L9.72719 4.13667L9.72719 4.53963L22 4.53963L22 7.55713L16.6067 7.55713L16.6067 10.5746L12.6229 10.5746L12.6229 10.9886L15.8658 10.9886L15.8658 13.6063L11.532 13.6063L11.532 13.9856L14.7764 13.9856L14.7764 16.2429L14.022 16.2429L14.022 17L5.43538 17L5.43538 16.6238L4.31584 16.6238L4.31584 16.2366L3.6291 16.2366L3.6291 15.8651L2.89727 15.8651L2.89727 15.4857L-6.76903e-07 15.4857L-2.14396e-07 4.90481L2.17595 4.90481L2.17595 4.53963L2.89877 4.53963L2.89877 4.1587L3.62158 4.1587L3.62158 3.78093L4.33087 3.78093L4.33087 3.39685L5.0612 3.39685L5.0612 3.01435L5.7735 3.01435L5.7735 2.63343L6.4918 2.63343L6.4918 2.25722L7.21612 2.25722L7.21612 1.89204L7.99754 1.89204L7.99754 1.51268L8.71885 1.51268L8.71885 1.12704L9.43716 1.12704L9.43716 0.750833L10.157 0.750833L10.157 0.373055L10.8873 0.373055L10.8873 -4.85752e-07L11.9016 -4.41413e-07" fill="white"/>
</svg>
