<svg width="30" height="23" viewBox="0 0 30 23" fill="none" xmlns="http://www.w3.org/2000/svg">
<path d="M16.1393 -6.05868e-07L16.1393 4.57019L15.2172 4.57019L15.2172 5.07278L14.2521 5.07278L14.2521 5.59667L13.2643 5.59667L13.2643 6.14185L30 6.14185L30 10.2244L22.6455 10.2244L22.6455 14.3069L17.2131 14.3069L17.2131 14.8669L21.6352 14.8669L21.6352 18.4085L15.7254 18.4085L15.7254 18.9218L20.1496 18.9218L20.1496 21.9757L19.1209 21.9757L19.1209 23L7.41188 23L7.41188 22.491L5.88525 22.491L5.88525 21.9671L4.94877 21.9671L4.94877 21.4645L3.95082 21.4645L3.95082 20.9513L9.91538e-07 20.9513L1.61728e-06 6.63593L2.96721 6.63593L2.96721 6.14185L3.95287 6.14185L3.95287 5.62648L4.93852 5.62648L4.93852 5.11537L5.90574 5.11537L5.90574 4.59574L6.90164 4.59574L6.90164 4.07824L7.87295 4.07824L7.87295 3.56287L8.85246 3.56287L8.85246 3.05389L9.84016 3.05389L9.84016 2.55981L10.9057 2.55981L10.9057 2.04657L11.8893 2.04657L11.8893 1.52481L12.8689 1.52481L12.8689 1.01583L13.8504 1.01583L13.8504 0.504722L14.8463 0.504722L14.8463 -6.62389e-07L16.2295 -6.01927e-07" fill="url(#paint0_linear_1061_1427)"/>
<defs>
<linearGradient id="paint0_linear_1061_1427" x1="30" y1="11.5" x2="1.40467e-06" y2="11.5" gradientUnits="userSpaceOnUse">
<stop stop-color="#B1B2FF"/>
<stop offset="1" stop-color="#7873FF"/>
</linearGradient>
</defs>
</svg>
