<svg width="49" height="54" viewBox="0 0 49 54" fill="none" xmlns="http://www.w3.org/2000/svg">
<path d="M18.0987 17.0276L18.4509 15.6552L19.1552 15.8362L19.3494 15.0759C17.378 15.4314 15.4164 16.1719 13.4614 17.2942C10.598 18.9398 8.07039 21.1844 5.87844 24.0313C3.68649 26.8782 2.07708 30.051 1.05351 33.5528C0.0233578 37.0119 -0.249813 40.2472 0.227413 43.2521C0.70464 46.2569 1.91581 48.6727 3.86092 50.4927C5.80603 52.3128 8.33369 53.2245 11.4472 53.2245C13.9913 53.2245 16.4926 52.6057 18.9512 51.3682C21.4097 50.1307 23.7498 48.3107 25.9779 45.9048L25.5534 45.161C23.8551 46.5038 22.0811 47.5405 20.2216 48.2646C18.3653 48.9887 16.5157 49.3507 14.6792 49.3507C11.7796 49.3507 9.41979 48.4752 7.59975 46.7243C5.7797 44.9734 4.63107 42.6596 4.15384 39.7765C3.67661 36.8934 3.91358 33.8293 4.87133 30.5743C5.57894 28.0302 6.64858 25.7395 8.08026 23.7055C9.51194 21.6715 11.1839 20.0654 13.0928 18.8806C14.4718 18.0249 15.8772 17.4851 17.3121 17.2448L17.4142 16.8466L18.0987 17.0243V17.0276Z" fill="white"/>
<path d="M14.8372 21.2042L14.8668 21.0791L14.8372 21.2042Z" fill="white"/>
<path d="M48.3056 16.6392L48.8552 14.4999L48.1509 14.3189L48.4866 13.009L47.8086 12.8345L48.1673 11.4391L47.4762 11.2613L48.898 5.7288L29.6114 0.775513L28.5451 4.92903L27.8802 4.75789L27.5248 6.13691L26.8303 5.95918L26.4749 7.33821L25.7837 7.16048L25.4349 8.51646L24.7371 8.33874L24.3784 9.73092L23.6806 9.5532L23.3318 10.9125L22.634 10.7347L22.2819 12.1072L21.5973 11.9327L21.2419 13.3151L20.577 13.1439L20.1952 14.6381L19.5041 14.4604L19.3461 15.0759C20.2644 14.9113 21.1826 14.8257 22.1042 14.8257C23.9769 14.8257 25.7179 15.1812 27.3273 15.8855C28.9367 16.5931 30.3059 17.6002 31.4381 18.9101L30.8555 23.2052C30.7831 23.6659 30.5988 24.0017 30.2993 24.2123C29.9998 24.4229 29.6641 24.4953 29.2922 24.4229C28.9203 24.3538 28.6306 24.1037 28.4167 23.6791C27.2154 21.451 25.8101 19.7988 24.2007 18.7192C22.5913 17.6397 20.8502 17.1033 18.9775 17.1033C18.418 17.1033 17.8618 17.1526 17.3088 17.2448L17.0587 18.2223L16.3708 18.0445L16.0121 19.4367L15.3308 19.2623L14.8668 21.0758L21.0246 22.6555L21.357 21.3654L22.0317 21.5398L22.3806 20.1871L23.0882 20.3681L23.4437 18.9858L24.1776 19.1734L18.1613 42.6069L23.6609 44.0189L26.307 33.7206L31.8067 35.1326L33.7617 27.5265L34.5186 27.7207L32.929 33.9148L37.698 35.1391L39.8241 26.865L40.5185 27.0427L38.9289 33.2368L43.0396 34.2933L43.4082 32.855L44.7905 33.2105L49 16.8169L48.3121 16.6392H48.3056Z" fill="white"/>
</svg>
